<svg id="Calque_1" data-name="Calque 1" xmlns="http://www.w3.org/2000/svg" viewBox="0 0 576 512"><defs><style>.cls-1{fill:#36ad1e;}</style></defs><title>cart-plus-solid</title><path class="cls-1" d="M504.72,320H211.57l6.55,32H486.54a24,24,0,0,1,23.4,29.32l-5.52,24.28a56,56,0,1,1-63.6,10.4H231.18a56,56,0,1,1-67.05-8.57L93.88,64H24A24,24,0,0,1,0,40V24A24,24,0,0,1,24,0H126.53A24,24,0,0,1,150,19.19L159.21,64H552a24,24,0,0,1,23.4,29.32l-47.27,208A24,24,0,0,1,504.72,320ZM408,168H360V128a16,16,0,0,0-16-16H328a16,16,0,0,0-16,16v40H264a16,16,0,0,0-16,16v16a16,16,0,0,0,16,16h48v40a16,16,0,0,0,16,16h16a16,16,0,0,0,16-16V216h48a16,16,0,0,0,16-16V184A16,16,0,0,0,408,168Z"/></svg>