<svg id="Calque_1" data-name="Calque 1" xmlns="http://www.w3.org/2000/svg" viewBox="0 0 576 512.01"><defs><style>.cls-1{fill:#757575;}</style></defs><title>cart-cross-solid</title><polygon class="cls-1" points="360.01 168 360.01 168 360.01 168 360.01 168"/><polygon class="cls-1" points="359.99 216 359.99 216 359.99 216 359.99 216"/><path class="cls-1" d="M528.13,301.32l47.27-208A24,24,0,0,0,552,64H159.21L150,19.19A24,24,0,0,0,126.53,0H24A24,24,0,0,0,0,24V40A24,24,0,0,0,24,64H93.88l70.25,343.43A56,56,0,1,0,231.18,416H440.82a56,56,0,1,0,63.6-10.4l5.52-24.28A24,24,0,0,0,486.54,352H218.12l-6.55-32H504.72A24,24,0,0,0,528.13,301.32ZM403.3,134.74a16,16,0,0,1,.23,22.63l-33.6,34.29,34.28,33.63a16,16,0,0,1,.21,22.62l-11.2,11.42a16,16,0,0,1-22.63.22L336.34,226l-33.59,34.28a16,16,0,0,1-22.62.23l-11.43-11.2a16,16,0,0,1-.23-22.63l33.6-34.29-34.28-33.63a16,16,0,0,1-.21-22.62l11.2-11.42a16,16,0,0,1,22.63-.22l34.25,33.6,33.59-34.28a16,16,0,0,1,22.62-.23Z"/><path class="cls-1" d="M360,168"/></svg>