<svg xmlns="http://www.w3.org/2000/svg" viewBox="0 0 1384 1830.43"><defs><style>.cls-1,.cls-2{fill:#fff;}.cls-2{font-size:106.72px;font-family:BigNoodleTitling, BigNoodleTitling;}</style></defs><title>Fichier 2</title><g id="Calque_2" data-name="Calque 2"><g id="Calque_3" data-name="Calque 3"><path class="cls-1" d="M688,0C459,55,230,107,0,159,4,304,6,448,16,594c8,109,21,213,42,324,17,88,35,169,60,251a748.9,748.9,0,0,0,53,106c12.5,20.13,26.48,41.71,39.35,60.63h963.18c9.51-13.94,19.61-29.61,28.47-44.63,3-4,5-7,8-11,22-38,59-120,60-123,37-130,62-255,80-389,8-59,14-116,18-175,10-145,11-289,16-434C1152,106,920,51,688,0Zm556.88,1090.19c-15.56,69.72-57.26,148.37-111.22,227.26l-877.15,1.6c-56-80.08-99.95-159.32-117.39-228-99.36-365.13-87-892.46-87-892.46L692,46.24l639.88,151.49S1325.29,831.77,1244.88,1090.19Z"/></g><g id="Calque_5" data-name="Calque 5"><rect class="cls-1" x="105" y="1379" width="20.33" height="221.33"/><rect class="cls-1" x="1262.67" y="1379" width="20.33" height="224"/><rect class="cls-1" x="877.75" y="1651.5" width="322" height="23.5"/><rect class="cls-1" x="190.75" y="1651.5" width="322.25" height="20.5"/><polygon class="cls-1" points="693.03 1801.34 561.79 1673.99 547.21 1689.01 693.03 1830.42 838.84 1689.01 824.26 1673.99 693.03 1801.34"/></g><g id="Calque_6" data-name="Calque 6"><text class="cls-2" transform="translate(191.61 1466.96) scale(2.05 1)">CESI INGÉNIEURS<tspan x="49.46" y="128.06">STRASBOURG</tspan></text></g><g id="Calque_2-2" data-name="Calque 2"><path class="cls-1" d="M1211.25,772.25,912,348S911,47,661.75,157.25c0,0,173.94-15.91,231.25,199.75-9,27-19,68.22-16,95.61C905,481,1211.25,772.25,1211.25,772.25Z"/><path class="cls-1" d="M751.33,241.33s15.34,32.67,88,77.34C806,324.67,716,315.33,751.33,241.33Z"/><path class="cls-1" d="M691,535.5S682.5,381,835,435.5C756,378.5,653.08,344,691,535.5Z"/><path class="cls-1" d="M650.25,168.5s-224.83,199.62,11.5,462.1,38.34,375-33.66,460.48c121.5-58.5,492-199.49,103.5-478.48C535,437.11,650.25,168.5,650.25,168.5Z"/><path class="cls-1" d="M665.33,856S442,968,561.33,1255.33C577.33,1048.67,546,1078,665.33,856Z"/><path class="cls-1" d="M682.91,760S400,909,482,1298C340,1103,373.82,768,682.91,760Z"/><path class="cls-1" d="M709,741S201,622,409,1303C98,1008,295,365,709,741Z"/></g></g></svg>