<svg xmlns="http://www.w3.org/2000/svg" viewBox="0 0 954.73 1170.03"><defs><style>.cls-1{fill:#fff;}</style></defs><title>Fichier 4</title><g id="Calque_2" data-name="Calque 2"><g id="Calque_2-2" data-name="Calque 2"><path class="cls-1" d="M954.73,639.28,655.48,215s-1-301-250.25-190.75c0,0,173.95-15.91,231.25,199.75-9,27-19,68.22-16,95.61C648.48,348,954.73,639.28,954.73,639.28Z"/><path class="cls-1" d="M494.82,108.36s15.33,32.67,88,77.33C549.48,191.69,459.48,182.36,494.82,108.36Z"/><path class="cls-1" d="M434.52,402.53s-8.54-154.5,144-100C499.48,245.53,396.56,211,434.52,402.53Z"/><path class="cls-1" d="M393.73,35.53s-224.83,199.61,11.5,462.1,38.34,375-33.65,460.48c121.49-58.5,492-199.49,103.49-478.48C278.47,304.14,393.73,35.53,393.73,35.53Z"/><path class="cls-1" d="M408.82,723s-223.34,112-104,399.33C320.82,915.69,289.48,945,408.82,723Z"/><path class="cls-1" d="M426.39,627S143.48,776,225.48,1165C83.48,970,117.3,635,426.39,627Z"/><path class="cls-1" d="M452.48,608s-508-119-300,562C-158.52,875,38.48,232,452.48,608Z"/></g></g></svg>