<svg xmlns="http://www.w3.org/2000/svg" viewBox="0 0 1384 1848.83"><defs><style>.cls-1,.cls-2{fill:#fff;}.cls-2{font-size:106.72px;font-family:BigNoodleTitling, BigNoodleTitling;}</style></defs><title>LogoBDE</title><g id="Calque_3" data-name="Calque 3"><path class="cls-1" d="M996,124C767,179,538,231,308,283c4,145,6,289,16,435,8,109,21,213,42,324,17,88,35,169,60,251a748.9,748.9,0,0,0,53,106c18,29,35,55,55,83,22,29,41,55,64,82,105,124,376,99.5,376,99.5,95.58-91.83,218,130.5,311,32.5,12-13,23-25,35-38,2-3,4-5,6-8,1-1,3-2,4-3,6-8,12-14,19-21,2-3,4-5,6-8,29-30,52-62,79-94,28-36,53-70,76-109,3-4,5-7,8-11,22-38,59-120,60-123,37-130,62-255,80-389,8-59,14-116,18-175,10-145,11-289,16-434C1460,230,1228,175,996,124Zm556.88,1090.19c-15.56,69.72-57.26,148.37-111.22,227.26l-877.15,1.6c-56-80.08-99.95-159.32-117.39-228-99.36-365.13-87-892.46-87-892.46L1000,170.24l639.88,151.49S1633.29,955.77,1552.88,1214.19Z" transform="translate(-308 -124)"/></g><g id="Calque_8" data-name="Calque 8"><path d="M1552.88,1214.19c-15.56,69.72-57.26,148.37-111.22,227.26l-877.15,1.6c-56-80.08-99.95-159.32-117.39-228-99.36-365.13-87-892.46-87-892.46L1000,170.24l639.88,151.49S1633.29,955.77,1552.88,1214.19Z" transform="translate(-308 -124)"/></g><g id="Calque_4" data-name="Calque 4"><path d="M1608.06,1743.33c-90.73-.66-89.39,65.72-89.39,65.72H1172.82l-169.23,163.78L833,1809.05H484.67s5.57-66.38-85.55-65V1488.67c63.55.66,63.55-29,63.55-29H1538s-6.55,27.7,70.06,29Z" transform="translate(-308 -124)"/></g><g id="Calque_5" data-name="Calque 5"><rect class="cls-1" x="105" y="1379" width="20.33" height="221.33"/><rect class="cls-1" x="1262.67" y="1379" width="20.33" height="224"/><rect class="cls-1" x="877.75" y="1651.5" width="322" height="23.5"/><rect class="cls-1" x="190.75" y="1651.5" width="322.25" height="20.5"/><polygon class="cls-1" points="838.84 1689.01 824.26 1673.99 693.03 1801.34 561.79 1673.99 547.21 1689.01 693.03 1830.42 838.84 1689.01"/></g><g id="Calque_6" data-name="Calque 6"><text class="cls-2" transform="translate(191.61 1466.96) scale(2.05 1)">CESI INGÉNIEURS<tspan x="49.46" y="128.06">STRASBOURG</tspan></text></g><g id="Calque_2" data-name="Calque 2"><path class="cls-1" d="M1519.25,896.25,1220,472s-1-301-250.25-190.75c0,0,173.94-15.91,231.25,199.75-9,27-19,68.22-16,95.61C1213,605,1519.25,896.25,1519.25,896.25Z" transform="translate(-308 -124)"/><path class="cls-1" d="M1059.33,365.33s15.34,32.67,88,77.34C1114,448.67,1024,439.33,1059.33,365.33Z" transform="translate(-308 -124)"/><path class="cls-1" d="M999,659.5s-8.54-154.5,144-100C1064,502.5,961.08,468,999,659.5Z" transform="translate(-308 -124)"/><path class="cls-1" d="M958.25,292.5s-224.83,199.62,11.5,462.1,38.34,375-33.66,460.48c121.5-58.5,492-199.49,103.5-478.48C843,561.11,958.25,292.5,958.25,292.5Z" transform="translate(-308 -124)"/><path class="cls-1" d="M973.33,980s-223.33,112-104,399.33C885.33,1172.67,854,1202,973.33,980Z" transform="translate(-308 -124)"/><path class="cls-1" d="M990.91,884S708,1033,790,1422C648,1227,681.82,892,990.91,884Z" transform="translate(-308 -124)"/><path class="cls-1" d="M1017,865S509,746,717,1427C406,1132,603,489,1017,865Z" transform="translate(-308 -124)"/></g></svg>